<svg width="30" height="26" viewBox="0 0 30 26" fill="none" xmlns="http://www.w3.org/2000/svg">
<path d="M29.8354 23.637L15.9893 0.56019C15.781 0.212884 15.4055 0 14.9999 0C14.5943 0 14.2187 0.212884 14.0105 0.56019L0.164364 23.637C-0.0496734 23.9936 -0.0548655 24.4378 0.149941 24.7995C0.354748 25.1613 0.737824 25.3845 1.15378 25.3845H28.846C29.262 25.3845 29.6456 25.1607 29.8498 24.799C30.0552 24.4372 30.0495 23.9936 29.8354 23.637ZM3.19147 23.0768L14.9999 3.39633L26.8083 23.0768H3.19147Z" fill="#36BB9B"/>
<path d="M13.8438 9.23099V15.0002C13.8438 15.6371 14.3607 16.154 14.9976 16.154C15.6345 16.154 16.1514 15.6371 16.1514 15.0002V9.23099C16.1514 8.59407 15.6345 8.07715 14.9976 8.07715C14.3607 8.07715 13.8438 8.59407 13.8438 9.23099Z" fill="#36BB9B"/>
<path d="M14.9976 17.3076C14.3607 17.3076 13.8438 17.8245 13.8438 18.4615V19.6153C13.8438 20.2522 14.3607 20.7691 14.9976 20.7691C15.6345 20.7691 16.1514 20.2522 16.1514 19.6153V18.4615C16.1514 17.8245 15.6345 17.3076 14.9976 17.3076Z" fill="#36BB9B"/>
</svg>
