<svg width="30" height="30" viewBox="0 0 30 30" fill="none" xmlns="http://www.w3.org/2000/svg">
<circle cx="15" cy="15" r="14" stroke="#36BB9B" stroke-width="2"/>
<path d="M14.52 24.3V22.08C13.6267 22.04 12.78 21.8867 11.98 21.62C11.1933 21.3533 10.5067 20.9533 9.92 20.42L10.52 19.1C11.1467 19.62 11.8133 20.0067 12.52 20.26C13.24 20.5133 14.0733 20.64 15.02 20.64C16.1533 20.64 16.9933 20.42 17.54 19.98C18.1 19.54 18.38 18.9667 18.38 18.26C18.38 17.6733 18.18 17.2067 17.78 16.86C17.3933 16.5133 16.7333 16.24 15.8 16.04L13.8 15.62C12.6 15.3667 11.7 14.94 11.1 14.34C10.5133 13.7267 10.22 12.92 10.22 11.92C10.22 11.1733 10.3933 10.5067 10.74 9.92C11.1 9.32 11.6 8.84 12.24 8.48C12.8933 8.12 13.6533 7.90667 14.52 7.84V5.6H15.88V7.84C16.56 7.89333 17.2333 8.06 17.9 8.34C18.58 8.62 19.16 9.02 19.64 9.54L19.08 10.82C18.5467 10.2733 17.9533 9.88 17.3 9.64C16.6467 9.38667 15.92 9.26 15.12 9.26C14.1333 9.26 13.34 9.5 12.74 9.98C12.14 10.46 11.84 11.0933 11.84 11.88C11.84 12.5067 12.0267 13 12.4 13.36C12.7867 13.72 13.3933 13.9867 14.22 14.16L16.22 14.6C17.5133 14.8667 18.4733 15.2867 19.1 15.86C19.7267 16.4333 20.04 17.2 20.04 18.16C20.04 19.2533 19.6533 20.1467 18.88 20.84C18.1067 21.52 17.1067 21.9267 15.88 22.06V24.3H14.52Z" fill="#36BB9B"/>
</svg>
