<svg width="33" height="32" viewBox="0 0 33 32" fill="none" xmlns="http://www.w3.org/2000/svg">
<path d="M32.1577 16.5693H18.1097C18.1067 16.5693 18.1067 16.5693 18.1036 16.5693C18.0405 16.5693 17.9803 16.5845 17.9232 16.6179L15.6465 17.9405L14.0886 16.6512C14.0255 16.5966 13.9443 16.5693 13.8601 16.5693H1.3609C1.1624 16.5693 1 16.7331 1 16.9334V24.878C1 25.0782 1.1624 25.242 1.3609 25.242H7.06913L13.9984 30.6567C14.2931 30.8873 14.645 30.9995 14.9999 30.9995C15.3788 30.9995 15.7578 30.8691 16.0616 30.6052L16.1939 30.4929L16.257 30.5566C16.4796 30.7811 16.7713 30.8934 17.063 30.8934C17.3518 30.8934 17.6375 30.7842 17.86 30.5657L18.7683 29.6709L21.1202 27.3503C21.3187 27.1531 21.436 26.8983 21.457 26.6222L26.3773 25.242H32.1577C32.3562 25.242 32.5186 25.0782 32.5186 24.878V16.9334C32.5186 16.7331 32.3562 16.5693 32.1577 16.5693ZM25.9652 24.602L21.2826 25.9154C21.2375 25.8457 21.1863 25.7789 21.1262 25.7183L16.5608 21.1135C16.4465 20.9982 16.2661 20.9739 16.1247 21.0558L13.8931 22.3572C13.0661 22.8365 12.0526 22.8183 11.2465 22.3026C11.0781 22.1964 10.9849 22.0174 10.9909 21.8172C10.9939 21.611 11.1022 21.4289 11.2766 21.3258L14.0405 19.715L18.1999 17.2974H25.9683V24.602H25.9652ZM1.7218 17.2974H6.83154V24.514H1.7218V17.2974ZM20.6119 26.8316L19.9713 27.4625L15.6676 23.0883C15.5262 22.9457 15.2976 22.9457 15.1563 23.0852C15.0149 23.2278 15.0149 23.4583 15.1533 23.6009L19.457 27.9691L18.5157 28.8973L14.2089 24.5291C14.0676 24.3866 13.839 24.3866 13.6977 24.5261C13.5563 24.6687 13.5563 24.8992 13.6947 25.0418L17.9984 29.41L17.3518 30.047C17.1894 30.2078 16.9247 30.2048 16.7653 30.044L16.4676 29.7406C16.4676 29.7406 16.4676 29.7406 16.4646 29.7376L12.7503 25.967C12.6089 25.8244 12.3804 25.8244 12.239 25.964C12.0977 26.1066 12.0977 26.3371 12.236 26.4797L15.6766 29.9742L15.5864 30.0531C15.2585 30.3352 14.7743 30.3473 14.4345 30.0804L7.54732 24.699V17.2974H13.7247L14.9728 18.3287L13.6736 19.0841L10.9097 20.6948C10.5127 20.9254 10.2721 21.3379 10.2631 21.8021C10.2541 22.2571 10.4766 22.6757 10.8556 22.9184C11.8902 23.5797 13.1894 23.6039 14.248 22.9881L16.239 21.8263L20.6089 26.234C20.663 26.2886 20.7021 26.3583 20.7202 26.4342V26.4372C20.7262 26.4675 20.7322 26.4979 20.7322 26.5312C20.7382 26.6435 20.6931 26.7496 20.6119 26.8316ZM31.7968 24.514H26.687V17.2974H31.7968V24.514Z" fill="#36BB9B" stroke="#36BB9B" stroke-width="0.5"/>
<path d="M14.5826 10.0427C14.7993 10.3699 15.1009 10.6138 15.4842 10.7744C15.7355 10.8793 16.0245 10.9503 16.3544 10.9874V12.0216C16.3544 12.2254 16.524 12.3921 16.7314 12.3921C16.9387 12.3921 17.1083 12.2254 17.1083 12.0216V11.0121C17.4759 10.9905 17.812 10.9133 18.1168 10.7775C18.4749 10.6169 18.7482 10.3915 18.9398 10.1013C19.1315 9.81112 19.2257 9.50238 19.2257 9.17513C19.2257 8.84478 19.1377 8.55457 18.965 8.29832C18.7922 8.04516 18.522 7.83522 18.1576 7.67159C17.9063 7.56045 17.4445 7.4277 16.7722 7.2795C16.7596 7.27642 16.7471 7.27333 16.7345 7.27024C16.0842 7.12205 15.679 6.98003 15.5219 6.8411C15.3585 6.69909 15.2768 6.51693 15.2768 6.29465C15.2768 6.0384 15.3931 5.82228 15.6224 5.64013C15.8517 5.46106 16.2162 5.36844 16.7188 5.36844H16.7345C17.2089 5.37153 17.567 5.47033 17.812 5.66792C17.988 5.80993 18.1105 5.99826 18.1827 6.23598C18.2393 6.41814 18.4121 6.53854 18.6037 6.52311C18.8613 6.50458 19.0341 6.2576 18.965 6.0137C18.9147 5.83772 18.8362 5.67409 18.7356 5.52281C18.544 5.23569 18.2707 5.01958 17.9188 4.87447C17.6769 4.77568 17.4099 4.70776 17.1178 4.67688V3.6488C17.1178 3.44504 16.9481 3.27832 16.7408 3.27832C16.5334 3.27832 16.3638 3.44504 16.3638 3.6488V4.66762C16.0685 4.69541 15.7952 4.76024 15.5407 4.86212C15.1952 5.00105 14.9344 5.2079 14.7554 5.4765C14.5763 5.74819 14.4852 6.0384 14.4852 6.34713C14.4852 6.63116 14.5574 6.88433 14.7051 7.11279C14.8527 7.34125 15.0758 7.53266 15.3742 7.68703C15.6036 7.80744 16.0088 7.93402 16.5837 8.07295C16.6371 8.0853 16.6905 8.09765 16.7408 8.11C17.2277 8.22732 17.5481 8.31376 17.7021 8.37242C17.9628 8.47121 18.1513 8.59162 18.2644 8.73672C18.3775 8.88183 18.4341 9.04855 18.4341 9.24305C18.4341 9.43446 18.3744 9.61044 18.2581 9.77098C18.1387 9.93152 17.9597 10.0581 17.7178 10.1507C17.4759 10.2433 17.1963 10.2897 16.879 10.2897C16.8319 10.2897 16.7848 10.2897 16.7408 10.2866C16.4392 10.2711 16.1659 10.2125 15.9177 10.1075C15.6318 9.98401 15.4214 9.82655 15.2863 9.62896C15.2014 9.50547 15.1355 9.36037 15.0884 9.19056C15.0381 9.00532 14.8559 8.88492 14.6611 8.90035C14.4161 8.92197 14.2433 9.15043 14.2998 9.38506C14.3532 9.62279 14.4475 9.84199 14.5826 10.0427Z" fill="#36BB9B" stroke="#36BB9B" stroke-width="0.5"/>
<path d="M16.5697 14.6707C18.3947 14.6707 20.1118 13.9605 21.4033 12.669C22.6949 11.3774 23.4051 9.66032 23.4051 7.83536C23.4051 6.0104 22.6949 4.29332 21.4033 3.00176C20.1118 1.71021 18.3947 1 16.5697 1C14.7448 1 13.0277 1.71021 11.7361 3.00176C10.4446 4.29332 9.73438 6.0104 9.73438 7.83536C9.73438 9.66032 10.4446 11.3774 11.7361 12.669C13.0277 13.9605 14.7448 14.6707 16.5697 14.6707ZM16.5697 1.72219C19.941 1.72219 22.6859 4.46413 22.6859 7.83835C22.6859 11.2126 19.941 13.9515 16.5697 13.9515C13.1985 13.9515 10.4536 11.2096 10.4536 7.83536C10.4536 4.46113 13.1985 1.72219 16.5697 1.72219Z" fill="#36BB9B" stroke="#36BB9B" stroke-width="0.5"/>
</svg>
