<svg width="72" height="30" viewBox="0 0 72 30" fill="none" xmlns="http://www.w3.org/2000/svg">
<circle cx="32" cy="15" r="14" stroke="#36BB9B" stroke-width="2"/>
<path d="M27 20L37 10" stroke="#36BB9B" stroke-width="1.8" stroke-linecap="round" stroke-linejoin="round"/>
<path d="M28.5882 12.1765C28.9131 12.1765 29.1765 11.9131 29.1765 11.5882C29.1765 11.2634 28.9131 11 28.5882 11C28.2634 11 28 11.2634 28 11.5882C28 11.9131 28.2634 12.1765 28.5882 12.1765Z" fill="#36BB9B" stroke="#36BB9B" stroke-width="1.8" stroke-linecap="round" stroke-linejoin="round"/>
<path d="M35.5882 19.1765C35.9131 19.1765 36.1765 18.9131 36.1765 18.5882C36.1765 18.2634 35.9131 18 35.5882 18C35.2634 18 35 18.2634 35 18.5882C35 18.9131 35.2634 19.1765 35.5882 19.1765Z" fill="#36BB9B" stroke="#36BB9B" stroke-width="1.8" stroke-linecap="round" stroke-linejoin="round"/>
</svg>
