<svg width="30" height="30" viewBox="0 0 30 30" fill="none" xmlns="http://www.w3.org/2000/svg">
<path d="M22.9946 14.1678V14.7678C22.9946 15.6179 22.3007 16.2084 21.5464 16.2424M22.9946 14.1678L16.7826 10.9062M22.9946 14.1678H22.991V10.8919C22.991 10.8912 22.9911 10.8903 22.9911 10.8891C22.9912 10.875 22.9915 10.823 22.9846 10.7633M22.9946 14.1678L22.9846 10.7633M21.5464 16.2424L21.5194 15.643M21.5464 16.2424C21.5465 16.2424 21.5466 16.2424 21.5467 16.2424L21.5194 15.643M21.5464 16.2424C20.6918 16.2811 20.0442 15.5241 20.0442 14.7678V14.4537L19.985 14.5126L18.9026 15.5896L18.9024 15.5898L17.9647 16.5222L17.0282 17.4533C17.0281 17.4534 17.0281 17.4535 17.028 17.4535C16.5809 17.9004 15.8107 18.0428 15.223 17.6724L15.2226 17.6721L15.019 17.5435L14.8175 17.4163C14.8171 17.416 14.8168 17.4158 14.8164 17.4155C14.4399 17.18 14.0634 16.9436 13.6875 16.7075L13.686 16.7066L13.6826 16.7045C13.4496 16.5581 13.2167 16.4119 12.9839 16.2659C12.6928 16.5908 12.4014 16.9157 12.1101 17.2404L12.1088 17.2418C11.7279 17.6665 11.3472 18.0908 10.9675 18.5152L10.9665 18.5162C10.7281 18.7813 10.4897 19.0473 10.2509 19.3137L10.2491 19.3157C10.0101 19.5823 9.77076 19.8494 9.53133 20.1156C8.925 20.7943 7.95078 20.6269 7.44142 20.1564M21.5194 15.643C21.7636 15.632 21.9879 15.5304 22.1484 15.3678L20.6442 14.7678C20.6442 15.2251 21.0479 15.6644 21.5194 15.643ZM7.44142 20.1564C6.77979 19.5466 6.93388 18.5975 7.40166 18.0787C7.57545 17.8837 7.75154 17.686 7.93152 17.488C8.3117 17.0632 8.69273 16.6385 9.07349 16.214L9.07382 16.2137C9.45509 15.7886 9.83609 15.3639 10.2162 14.9392L10.2171 14.9382C10.696 14.4056 11.1733 13.8749 11.6468 13.3409L11.6492 13.3382C11.8912 13.0685 12.2236 12.9345 12.5297 12.8973C12.8358 12.8601 13.1816 12.9112 13.4747 13.0944L13.4771 13.0959L13.6807 13.2245L13.8824 13.3519C13.8827 13.3521 13.8831 13.3524 13.8835 13.3526C14.2652 13.5916 14.6469 13.8315 15.028 14.0711L15.0299 14.0723C15.2773 14.2278 15.5246 14.3831 15.7717 14.5382C16.2196 14.0932 16.6669 13.6475 17.1146 13.2014L17.1152 13.2009C17.3892 12.9278 17.6635 12.6545 17.9379 12.3814H17.6578C16.8076 12.3814 16.2172 11.6875 16.1832 10.9332M7.44142 20.1564C7.44157 20.1565 7.44172 20.1567 7.44187 20.1568L7.8483 19.7154L7.44093 20.1559C7.4411 20.1561 7.44126 20.1562 7.44142 20.1564ZM16.1832 10.9332L16.7826 10.9062M16.1832 10.9332C16.1832 10.9333 16.1832 10.9333 16.1832 10.9334L16.7826 10.9062M16.1832 10.9332C16.1445 10.0786 16.9015 9.43096 17.6578 9.43096H21.5301C21.8899 9.43096 22.2225 9.56457 22.4757 9.78076M16.7826 10.9062C16.7611 10.4346 17.2005 10.031 17.6578 10.031H21.5301C21.7409 10.031 21.9374 10.1095 22.0874 10.2382L22.4736 9.77893C22.4743 9.77954 22.475 9.78015 22.4757 9.78076M22.4757 9.78076C22.7242 9.99058 22.8997 10.2838 22.9625 10.611L22.9839 10.6538V10.756C22.9841 10.7584 22.9844 10.7608 22.9846 10.7633M22.4757 9.78076L22.9846 10.7633M9.52012 16.6147C9.90146 16.1896 10.2828 15.7645 10.6633 15.3394L7.8483 18.4794C8.02334 18.2829 8.19838 18.0864 8.37699 17.89C8.75744 17.4649 9.13878 17.0398 9.52012 16.6147ZM0.6 15C0.6 7.04726 7.04726 0.6 15 0.6C22.9527 0.6 29.4 7.04726 29.4 15C29.4 22.9527 22.9527 29.4 15 29.4C7.04726 29.4 0.6 22.9527 0.6 15Z" fill="#CDEFE7" stroke="#36BB9B" stroke-width="1.2"/>
</svg>
