<svg width="31" height="34" viewBox="0 0 31 34" fill="none" xmlns="http://www.w3.org/2000/svg">
<circle cx="21.7812" cy="7.96875" r="4.03125" stroke="#36BB9B" stroke-width="1.5"/>
<mask id="path-2-inside-1_934_57119" fill="white">
<path d="M30.8125 21.25C30.8125 20.1338 30.5926 19.0285 30.1655 17.9972C29.7383 16.9659 29.1122 16.0289 28.3229 15.2396C27.5336 14.4503 26.5966 13.8242 25.5653 13.397C24.534 12.9699 23.4287 12.75 22.3125 12.75C21.1963 12.75 20.091 12.9699 19.0597 13.397C18.0284 13.8242 17.0914 14.4503 16.3021 15.2396C15.5128 16.0289 14.8867 16.9659 14.4595 17.9972C14.0324 19.0285 13.8125 20.1338 13.8125 21.25L22.3125 21.25H30.8125Z"/>
</mask>
<path d="M30.8125 21.25C30.8125 20.1338 30.5926 19.0285 30.1655 17.9972C29.7383 16.9659 29.1122 16.0289 28.3229 15.2396C27.5336 14.4503 26.5966 13.8242 25.5653 13.397C24.534 12.9699 23.4287 12.75 22.3125 12.75C21.1963 12.75 20.091 12.9699 19.0597 13.397C18.0284 13.8242 17.0914 14.4503 16.3021 15.2396C15.5128 16.0289 14.8867 16.9659 14.4595 17.9972C14.0324 19.0285 13.8125 20.1338 13.8125 21.25L22.3125 21.25H30.8125Z" stroke="#36BB9B" stroke-width="3" mask="url(#path-2-inside-1_934_57119)"/>
<circle cx="10.0938" cy="5.84375" r="5.09375" fill="#F5F6F8" stroke="#36BB9B" stroke-width="1.5"/>
<mask id="path-4-inside-2_934_57119" fill="white">
<path d="M21.25 23.375C21.25 21.9797 20.9752 20.5981 20.4412 19.309C19.9073 18.0199 19.1246 16.8486 18.138 15.862C17.1514 14.8754 15.9801 14.0927 14.691 13.5588C13.4019 13.0248 12.0203 12.75 10.625 12.75C9.2297 12.75 7.84807 13.0248 6.55899 13.5588C5.2699 14.0927 4.09861 14.8754 3.11199 15.862C2.12537 16.8486 1.34274 18.0199 0.80878 19.309C0.274824 20.5981 -1.21981e-07 21.9797 0 23.375L10.625 23.375H21.25Z"/>
</mask>
<path d="M21.25 23.375C21.25 21.9797 20.9752 20.5981 20.4412 19.309C19.9073 18.0199 19.1246 16.8486 18.138 15.862C17.1514 14.8754 15.9801 14.0927 14.691 13.5588C13.4019 13.0248 12.0203 12.75 10.625 12.75C9.2297 12.75 7.84807 13.0248 6.55899 13.5588C5.2699 14.0927 4.09861 14.8754 3.11199 15.862C2.12537 16.8486 1.34274 18.0199 0.80878 19.309C0.274824 20.5981 -1.21981e-07 21.9797 0 23.375L10.625 23.375H21.25Z" fill="#F5F6F8" stroke="#36BB9B" stroke-width="3" mask="url(#path-4-inside-2_934_57119)"/>
</svg>
